<?xml version="1.0" encoding="UTF-8"?>
<svg id="_图层_1" xmlns="http://www.w3.org/2000/svg" version="1.1" viewBox="0 0 1533 1190">
  <!-- Generator: Adobe Illustrator 29.4.0, SVG Export Plug-In . SVG Version: 2.1.0 Build 152)  -->
  <defs>
    <style>
      .st0 {
        fill: #fff;
      }
    </style>
  </defs>
  <path class="st0" d="M618.1,259.7c0-81.9,66.5-148.4,148.4-148.4s148.4,66.5,148.4,148.4v111.3h-296.8v-111.3ZM506.8,371h-148.4c-61.4,0-111.3,49.9-111.3,111.3v482.3c0,122.9,99.7,222.6,222.6,222.6h593.6c122.9,0,222.6-99.7,222.6-222.6v-482.3c0-61.4-49.9-111.3-111.3-111.3h-148.4v-111.3C1026.2,116.2,910,0,766.5,0s-259.7,116.2-259.7,259.7v111.3ZM562.4,482.3c30.7,0,55.7,24.9,55.7,55.7s-24.9,55.7-55.7,55.7-55.7-24.9-55.7-55.7,24.9-55.7,55.7-55.7ZM914.9,538c0-30.7,24.9-55.7,55.7-55.7s55.7,24.9,55.7,55.7-24.9,55.7-55.7,55.7-55.7-24.9-55.7-55.7h0Z"/>
</svg>