<?xml version="1.0" encoding="UTF-8"?>
<svg id="_图层_1" xmlns="http://www.w3.org/2000/svg" version="1.1" viewBox="0 0 1533 1190">
  <!-- Generator: Adobe Illustrator 29.4.0, SVG Export Plug-In . SVG Version: 2.1.0 Build 152)  -->
  <defs>
    <style>
      .st0 {
        fill: #fff;
      }
    </style>
  </defs>
  <path class="st0" d="M549,0C245.8,0,0,245.8,0,549v427c0,120,95.8,214,214,214h10c80.2,0,150.2-44.2,186.8-109.6,44.1,11.4,90.5,17.6,138.2,17.6,303.2,0,549-245.8,549-549S852.2,0,549,0ZM315.5,685c47.8,0,86.5,38.7,86.5,86.5s-38.7,86.5-86.5,86.5-86.5-38.7-86.5-86.5,38.7-86.5,86.5-86.5ZM549.5,715c-42.3,0-81.1-14.9-111.5-39.7-37.1-30.3-61.7-75.4-64.7-126.3-.2-3.5-.3-7-.3-10.5,0-97.5,79-176.5,176.5-176.5s176.5,79,176.5,176.5-79,176.5-176.5,176.5Z"/>
  <circle class="st0" cx="1325" cy="208" r="208"/>
  <circle class="st0" cx="1305.5" cy="963.5" r="226.5"/>
</svg>